<?xml version="1.0" encoding="UTF-8" standalone="no"?>
<svg
   xmlns:dc="http://purl.org/dc/elements/1.1/"
   xmlns:cc="http://creativecommons.org/ns#"
   xmlns:rdf="http://www.w3.org/1999/02/22-rdf-syntax-ns#"
   xmlns:svg="http://www.w3.org/2000/svg"
   xmlns="http://www.w3.org/2000/svg"
   xmlns:sodipodi="http://sodipodi.sourceforge.net/DTD/sodipodi-0.dtd"
   xmlns:inkscape="http://www.inkscape.org/namespaces/inkscape"
   width="89"
   height="89"
   viewBox="0 0 89 89"
   version="1.1"
   id="svg24"
   sodipodi:docname="logo.svg"
   inkscape:version="0.92.5 (0.92.5+68)"
   inkscape:export-filename="/home/evaleto/nodejs/evaletolab.ch/suisse21-zendesk/public/assets/logo-small.png"
   inkscape:export-xdpi="34.52"
   inkscape:export-ydpi="34.52">
  <metadata
     id="metadata28">
    <rdf:RDF>
      <cc:Work
         rdf:about="">
        <dc:format>image/svg+xml</dc:format>
        <dc:type
           rdf:resource="http://purl.org/dc/dcmitype/StillImage" />
        <dc:title>Group 7</dc:title>
      </cc:Work>
    </rdf:RDF>
  </metadata>
  <sodipodi:namedview
     pagecolor="#ffffff"
     bordercolor="#666666"
     borderopacity="1"
     objecttolerance="10"
     gridtolerance="10"
     guidetolerance="10"
     inkscape:pageopacity="0"
     inkscape:pageshadow="2"
     inkscape:window-width="1591"
     inkscape:window-height="795"
     id="namedview26"
     showgrid="false"
     inkscape:zoom="1"
     inkscape:cx="44.5"
     inkscape:cy="24.5"
     inkscape:window-x="49"
     inkscape:window-y="24"
     inkscape:window-maximized="0"
     inkscape:current-layer="svg24" />
  <!-- Generator: Sketch 48.2 (47327) - http://www.bohemiancoding.com/sketch -->
  <title
     id="title2">Group 7</title>
  <desc
     id="desc4">Created with Sketch.</desc>
  <defs
     id="defs6" />
  <g
     id="8-Logo"
     transform="translate(-45,-83)"
     style="fill:none;fill-rule:evenodd;stroke:none;stroke-width:1">
    <g
       id="Group-7"
       transform="translate(45,103)">
      <path
         d="m 52.545,36.4443 c -2.698,0 -4.432,2.062 -4.432,4.805 0,2.72 1.734,4.804 4.432,4.804 2.699,0 4.454,-2.084 4.454,-4.804 0,-2.743 -1.755,-4.805 -4.454,-4.805 m 0,-2.765 c 4.432,0 7.656,3.16 7.656,7.57 0,4.409 -3.224,7.569 -7.656,7.569 -4.41,0 -7.634,-3.16 -7.634,-7.569 0,-4.41 3.224,-7.57 7.634,-7.57"
         id="Fill-1"
         inkscape:connector-curvature="0"
         style="fill:#2b2b2b" />
      <path
         d="m 68.1006,36.664 h -3.269 v 3.949 h 3.269 c 1.25,0 2.194,-0.746 2.194,-1.975 0,-1.228 -0.944,-1.974 -2.194,-1.974 z m -0.987,6.691 h -2.282 v 5.2 h -3.115 V 33.921 h 6.845 c 3.049,0 4.914,1.997 4.914,4.717 0,2.589 -1.623,3.971 -3.203,4.344 l 3.291,5.573 h -3.576 z"
         id="Fill-3"
         inkscape:connector-curvature="0"
         style="fill:#2b2b2b" />
      <path
         d="m 82.23,33.6797 c 3.049,0 4.958,1.537 6.055,3.27 l -2.589,1.403 c -0.658,-1.031 -1.908,-1.908 -3.466,-1.908 -2.654,0 -4.585,2.04 -4.585,4.804 0,2.764 1.931,4.805 4.585,4.805 1.294,0 2.523,-0.57 3.116,-1.119 v -1.755 h -3.862 v -2.72 h 6.976 v 5.616 c -1.491,1.667 -3.576,2.764 -6.23,2.764 -4.278,0 -7.788,-2.984 -7.788,-7.591 0,-4.629 3.51,-7.569 7.788,-7.569"
         id="Fill-5"
         inkscape:connector-curvature="0"
         style="fill:#2b2b2b" />
      <polygon
         id="Fill-10"
         points="31.44,14.6705 31.44,0.0375 28.325,0.0375 28.325,14.6705 "
         style="fill:#da211d" />
      <polygon
         id="Fill-11"
         points="37.232,14.6705 37.232,0.0375 34.117,0.0375 34.117,14.6705 "
         style="fill:#da211d" />
      <path
         d="m 1.6895,27.1806 c 1.031,1.076 2.632,1.975 4.651,1.975 1.711,0 2.544,-0.79 2.544,-1.624 0,-1.075 -1.36,-1.382 -2.961,-1.777 -2.391,-0.548 -5.463,-1.206 -5.463,-4.541 0,-2.435 2.106,-4.453 5.551,-4.453 2.325,0 4.256,0.701 5.704,2.04 l -1.733,2.282 c -1.185,-1.097 -2.765,-1.602 -4.256,-1.602 -1.339,0 -2.085,0.593 -2.085,1.47 0,0.943 1.339,1.25 2.918,1.623 2.414,0.571 5.485,1.294 5.485,4.607 0,2.677 -1.909,4.695 -5.858,4.695 -2.808,0 -4.826,-0.943 -6.186,-2.325 z"
         id="Fill-12"
         inkscape:connector-curvature="0"
         style="fill:#da211d" />
      <polygon
         id="Fill-13"
         points="18.7805,27.5534 21.5665,16.9794 24.0025,16.9794 26.7655,27.5534 29.3105,16.9794 32.8205,16.9794 28.6525,31.6124 25.3395,31.6124 22.7735,21.5644 20.2285,31.6124 16.9155,31.6124 12.7255,16.9794 16.2135,16.9794 "
         style="fill:#da211d" />
      <polygon
         id="Fill-14"
         points="37.408,31.6125 37.408,16.9795 34.293,16.9795 34.293,31.6125 "
         style="fill:#da211d" />
      <path
         d="m 40.3477,27.1806 c 1.031,1.076 2.633,1.975 4.651,1.975 1.711,0 2.545,-0.79 2.545,-1.624 0,-1.075 -1.361,-1.382 -2.962,-1.777 -2.391,-0.548 -5.463,-1.206 -5.463,-4.541 0,-2.435 2.106,-4.453 5.551,-4.453 2.325,0 4.256,0.701 5.704,2.04 l -1.733,2.282 c -1.185,-1.097 -2.765,-1.602 -4.256,-1.602 -1.339,0 -2.085,0.593 -2.085,1.47 0,0.943 1.339,1.25 2.918,1.623 2.414,0.571 5.485,1.294 5.485,4.607 0,2.677 -1.909,4.695 -5.858,4.695 -2.808,0 -4.826,-0.943 -6.186,-2.325 z"
         id="Fill-15"
         inkscape:connector-curvature="0"
         style="fill:#da211d" />
      <path
         d="m 52.8536,27.1806 c 1.031,1.076 2.632,1.975 4.651,1.975 1.711,0 2.544,-0.79 2.544,-1.624 0,-1.075 -1.36,-1.382 -2.961,-1.777 -2.391,-0.548 -5.463,-1.206 -5.463,-4.541 0,-2.435 2.106,-4.453 5.55,-4.453 2.326,0 4.257,0.701 5.705,2.04 l -1.734,2.282 c -1.184,-1.097 -2.764,-1.602 -4.255,-1.602 -1.339,0 -2.085,0.593 -2.085,1.47 0,0.943 1.339,1.25 2.918,1.623 2.413,0.571 5.485,1.294 5.485,4.607 0,2.677 -1.909,4.695 -5.858,4.695 -2.808,0 -4.826,-0.943 -6.186,-2.325 z"
         id="Fill-16"
         inkscape:connector-curvature="0"
         style="fill:#da211d" />
      <path
         d="m 21.3477,46.0976 c 5.989,-4.41 7.745,-5.924 7.745,-7.723 0,-1.272 -1.163,-1.908 -2.37,-1.908 -1.667,0 -2.94,0.657 -3.927,1.69 l -1.777,-2.063 c 1.426,-1.646 3.598,-2.391 5.638,-2.391 3.115,0 5.595,1.754 5.595,4.672 0,2.501 -2.063,4.673 -5.858,7.438 h 5.967 v 2.742 h -11.013 z"
         id="Fill-17"
         inkscape:connector-curvature="0"
         style="fill:#da211d" />
      <polygon
         id="Fill-18"
         points="37.294,48.570007 37.294,33.9215 34.179,33.9215 34.179,48.570007 "
         style="fill:#da211d" />
      <polygon
         id="Fill-19"
         points="25.551,10.0425 25.551,-0.0005 22.435,-0.0005 22.435,10.0425 "
         style="fill:#da211d" />
      <polygon
         id="Fill-20"
         points="43.726,48.5735 43.726,45.4445 40.597,45.4445 40.597,48.5735 "
         style="fill:#2b2b2b" />
    </g>
  </g>
</svg>
